<svg xmlns="http://www.w3.org/2000/svg" xmlns:xlink="http://www.w3.org/1999/xlink" xmlns:fi="http://pattern.flaticon.com/" x="0" y="0" width="1920" height="960" viewBox="0 0 1920 960"><rect x="0px" y="0px" width="100%" height="100%" opacity="0" fill="#ffffff"/><defs><g transform="matrix(-0.0524805819939083 -0.09391261721013426 -0.09391261721013426 0.0524805819939083 175.4766589962349 340.1066010153538)" id="L1_28"><path d="M512,256c0,127.969-93.895,234.005-216.555,252.98c-2.769,0.428-5.559,0.815-8.359,1.149  c-9.007,1.097-18.16,1.714-27.429,1.839C258.435,511.99,257.223,512,256,512s-2.435-0.01-3.657-0.031  c-9.268-0.125-18.422-0.742-27.429-1.839c-2.8-0.334-5.59-0.721-8.359-1.149C93.895,490.005,0,383.969,0,256  C0,114.615,114.615,0,256,0S512,114.615,512,256z" fill="#f2f2f2"/><g><path d="M512,256c0,9.644-0.533,19.163-1.578,28.536c-0.115,1.045-0.23,2.1-0.355,3.145   c-0.658,5.308-1.484,10.574-2.456,15.778c-0.188,1.034-0.387,2.058-0.596,3.072c-18.098,90.436-83.832,163.652-169.942,192.355   c-12.978,2.508-17.586-5.465-17.586-12.288c0-8.432,0.293-35.997,0.293-70.249c0-23.886-8.182-39.466-17.356-47.407   c44.335-4.932,90.425-19.122,108.711-71.471c0.366-1.024,0.711-2.069,1.045-3.124c1.024-3.187,1.933-6.51,2.748-9.979   c0.24-1.034,0.481-2.079,0.7-3.145c2.393-11.337,3.689-24.137,3.689-38.599c0-27.941-9.937-50.782-26.352-68.712   c2.664-6.447,11.431-32.486-2.508-67.751c0,0-21.462-6.875-70.332,26.248c-20.459-5.674-42.371-8.516-64.125-8.62   c-21.755,0.104-43.656,2.947-64.084,8.62c-48.912-33.123-70.416-26.248-70.416-26.248c-13.897,35.265-5.13,61.304-2.476,67.751   c-16.374,17.93-26.384,40.772-26.384,68.712c0,14.451,1.296,27.251,3.699,38.588c0.219,1.066,0.449,2.111,0.69,3.145   c0.815,3.469,1.735,6.802,2.759,9.989c0.334,1.055,0.69,2.1,1.045,3.124c18.275,52.255,64.24,66.644,108.45,71.67   c-7.325,6.395-13.96,17.69-16.259,34.241c-14.608,6.541-51.66,17.847-74.491-21.285c0,0-13.542-24.576-39.246-26.384   c0,0-24.984-0.324-1.745,15.559c0,0,16.771,7.879,28.421,37.46c0,0,15.026,45.693,86.246,30.208   c0.115,21.389,0.345,41.556,0.345,47.658c0,6.76-4.692,14.691-17.492,12.319C88.9,470.235,23.092,397.009,4.984,306.531v-0.01   c-0.209-1.014-0.408-2.038-0.585-3.062c-0.982-5.204-1.808-10.47-2.456-15.778c-0.136-1.045-0.251-2.09-0.366-3.145   C0.533,275.163,0,265.644,0,256C0,114.615,114.636,0,256,0C397.375,0,512,114.615,512,256z" fill="#222123"/><path d="M117.457,387.709c-1.609-2.257-4.138-3.239-5.716-2.152c-1.609,1.097-1.609,3.824-0.042,6.102   c1.588,2.278,4.148,3.302,5.726,2.205C119.024,392.756,119.024,390.019,117.457,387.709z" fill="#222123"/><path d="M129.849,401.575c-2.205-2.1-5.214-2.529-6.635-0.982c-1.4,1.546-0.784,4.483,1.452,6.541   c2.194,2.111,5.183,2.529,6.583,0.982C132.744,406.58,132.065,403.634,129.849,401.575z" fill="#222123"/><path d="M146.139,411.136c-2.926-0.909-5.82,0.042-6.416,2.058c-0.585,2.027,1.306,4.378,4.2,5.256   c2.905,0.846,5.778-0.063,6.405-2.069C150.925,414.344,149.034,412.014,146.139,411.136z" fill="#222123"/><path d="M165.742,414.187c-3.062,0.052-5.465,1.776-5.465,3.908c0.031,2.079,2.508,3.793,5.569,3.72   c3.041-0.031,5.507-1.787,5.433-3.897C171.28,415.828,168.782,414.124,165.742,414.187z" fill="#222123"/><path d="M190.777,414.605c-0.387-2.1-3.103-3.333-6.123-2.811c-2.978,0.543-5.13,2.664-4.754,4.775   c0.376,2.038,3.124,3.312,6.102,2.769C189.022,418.774,191.133,416.664,190.777,414.605z" fill="#222123"/></g></g><g transform="matrix(0.08010193826544486 0.011048543414270105 -0.011048543414270105 0.08010193826544486 -17.67766908190074 151.66547668999297)" id="L1_29"><path d="M512,256c0,127.969-93.895,234.005-216.555,252.98c-2.769,0.428-5.559,0.815-8.359,1.149  c-9.007,1.097-18.16,1.714-27.429,1.839C258.435,511.99,257.223,512,256,512s-2.435-0.01-3.657-0.031  c-9.268-0.125-18.422-0.742-27.429-1.839c-2.8-0.334-5.59-0.721-8.359-1.149C93.895,490.005,0,383.969,0,256  C0,114.615,114.615,0,256,0S512,114.615,512,256z" fill="#f2f2f2"/><g><path d="M512,256c0,9.644-0.533,19.163-1.578,28.536c-0.115,1.045-0.23,2.1-0.355,3.145   c-0.658,5.308-1.484,10.574-2.456,15.778c-0.188,1.034-0.387,2.058-0.596,3.072c-18.098,90.436-83.832,163.652-169.942,192.355   c-12.978,2.508-17.586-5.465-17.586-12.288c0-8.432,0.293-35.997,0.293-70.249c0-23.886-8.182-39.466-17.356-47.407   c44.335-4.932,90.425-19.122,108.711-71.471c0.366-1.024,0.711-2.069,1.045-3.124c1.024-3.187,1.933-6.51,2.748-9.979   c0.24-1.034,0.481-2.079,0.7-3.145c2.393-11.337,3.689-24.137,3.689-38.599c0-27.941-9.937-50.782-26.352-68.712   c2.664-6.447,11.431-32.486-2.508-67.751c0,0-21.462-6.875-70.332,26.248c-20.459-5.674-42.371-8.516-64.125-8.62   c-21.755,0.104-43.656,2.947-64.084,8.62c-48.912-33.123-70.416-26.248-70.416-26.248c-13.897,35.265-5.13,61.304-2.476,67.751   c-16.374,17.93-26.384,40.772-26.384,68.712c0,14.451,1.296,27.251,3.699,38.588c0.219,1.066,0.449,2.111,0.69,3.145   c0.815,3.469,1.735,6.802,2.759,9.989c0.334,1.055,0.69,2.1,1.045,3.124c18.275,52.255,64.24,66.644,108.45,71.67   c-7.325,6.395-13.96,17.69-16.259,34.241c-14.608,6.541-51.66,17.847-74.491-21.285c0,0-13.542-24.576-39.246-26.384   c0,0-24.984-0.324-1.745,15.559c0,0,16.771,7.879,28.421,37.46c0,0,15.026,45.693,86.246,30.208   c0.115,21.389,0.345,41.556,0.345,47.658c0,6.76-4.692,14.691-17.492,12.319C88.9,470.235,23.092,397.009,4.984,306.531v-0.01   c-0.209-1.014-0.408-2.038-0.585-3.062c-0.982-5.204-1.808-10.47-2.456-15.778c-0.136-1.045-0.251-2.09-0.366-3.145   C0.533,275.163,0,265.644,0,256C0,114.615,114.636,0,256,0C397.375,0,512,114.615,512,256z" fill="#222123"/><path d="M117.457,387.709c-1.609-2.257-4.138-3.239-5.716-2.152c-1.609,1.097-1.609,3.824-0.042,6.102   c1.588,2.278,4.148,3.302,5.726,2.205C119.024,392.756,119.024,390.019,117.457,387.709z" fill="#222123"/><path d="M129.849,401.575c-2.205-2.1-5.214-2.529-6.635-0.982c-1.4,1.546-0.784,4.483,1.452,6.541   c2.194,2.111,5.183,2.529,6.583,0.982C132.744,406.58,132.065,403.634,129.849,401.575z" fill="#222123"/><path d="M146.139,411.136c-2.926-0.909-5.82,0.042-6.416,2.058c-0.585,2.027,1.306,4.378,4.2,5.256   c2.905,0.846,5.778-0.063,6.405-2.069C150.925,414.344,149.034,412.014,146.139,411.136z" fill="#222123"/><path d="M165.742,414.187c-3.062,0.052-5.465,1.776-5.465,3.908c0.031,2.079,2.508,3.793,5.569,3.72   c3.041-0.031,5.507-1.787,5.433-3.897C171.28,415.828,168.782,414.124,165.742,414.187z" fill="#222123"/><path d="M190.777,414.605c-0.387-2.1-3.103-3.333-6.123-2.811c-2.978,0.543-5.13,2.664-4.754,4.775   c0.376,2.038,3.124,3.312,6.102,2.769C189.022,418.774,191.133,416.664,190.777,414.605z" fill="#222123"/></g></g><g transform="matrix(0.12429612099257112 0.08010194082223791 -0.08010194082223791 0.12429612099257112 151.6862898763947 154.6740961754089)" id="L1_30"><path d="M512,256c0,7.91-0.355,15.726-1.066,23.448c-0.543,6.113-1.317,12.152-2.299,18.119  C488.782,419.182,383.227,512,256,512c-64.805,0-123.977-24.074-169.075-63.781c-16.666-14.66-31.41-31.462-43.802-49.977  C15.882,357.564,0,308.632,0,256C0,114.615,114.615,0,256,0S512,114.615,512,256z" fill="#f2f2f2"/><path d="M446.767,284.975c-7.764,2.936-7.45,2.988-11.557-4.493c-5.245-9.529-8.035-19.55-8.276-30.448  c-0.199-9.352,2.361-18.045,5.58-26.572c2.57-6.781-0.773-9.174-6.646-9.791c-4.274-0.439-8.683-0.397-12.967,0.042  c-11.139,1.139-12.236,2.1-15.193,12.915c-1.755,6.416-3.156,12.884-6.071,18.975c-7.189,14.994-15.36,29.435-23.74,43.771  c-1.505,2.581-2.748,5.36-4.869,7.565c-6.071-9.091-8.359-19.132-8.871-29.665c-0.512-10.397,2.675-20.062,6.175-29.623  c1.181-3.218,0.199-5.214-2.581-6.604c-1.233-0.616-2.612-1.191-3.96-1.296c-7.147-0.564-14.273-0.481-21.243,1.473  c-3.135,0.867-5.183,2.623-5.883,6.144c-1.358,6.886-3.479,13.573-6.343,20.01c-7.941,17.826-15.83,35.683-23.761,53.52  c-6.896,15.496-13.688,31.033-21.859,45.913c-0.575,1.055-1.055,2.884-2.497,2.518c-1.463-0.366-0.951-2.163-1.014-3.396  c-0.47-8.777,1.923-17.147,3.96-25.527c3.229-13.26,6.76-26.457,10.188-39.675c0.982-3.793-0.669-6.343-3.814-8.161  c-4.524-2.602-9.028-2.727-13.928,0.919c0.669-5.392,0.961-10.125,0.731-14.858c-0.522-10.553-5.413-17.418-13.928-19.007  c-6.217-1.16-12.1,0.648-17.659,3.281c-12.957,6.134-23.374,15.381-32.131,26.603c-1.024,1.306-2.058,2.508-3.542,3.312  c-16.436,8.955-32.862,17.91-49.256,26.948c-1.797,1.003-2.957,0.721-4.253-0.669c-8.255-8.85-17.836-16.154-27.324-23.562  c-13.26-10.365-26.979-20.187-38.421-32.684c-6.687-7.314-12.267-15.329-15.057-25.004c-4.556-15.82-1.149-30.553,6.437-44.554  c8.976-16.562,22.288-29.351,36.968-40.741c23.312-18.077,48.88-32.434,75.828-44.251c30.177-13.218,61.482-21.734,94.824-20.449  c13.208,0.512,26.028,2.8,37.794,9.268c8.328,4.577,13.845,11.191,15.402,20.898c1.829,11.368-0.899,21.87-5.945,31.828  c-11.274,22.246-29.194,38.003-50.375,50.343c-17.638,10.271-36.665,16.792-56.801,20.208c-11.128,1.891-22.298,3.03-33.489,1.327  c-12.842-1.954-24.712-6.248-33.499-16.593c-1.014-1.191-2.299-2.017-4.023-1.181c-1.766,0.857-1.63,2.424-1.463,3.929  c0.125,1.034,0.408,2.079,0.773,3.062c2.351,6.343,6.75,11.128,11.901,15.308c13.396,10.898,29.268,14.096,45.934,14.42  c16.311,0.324,32.371-1.745,48.264-5.548c35.85-8.568,65.881-26.154,87.803-56.289c13.103-18.014,21.4-37.867,20.668-60.583  c-0.47-14.409-5.319-27.136-15.82-37.48c-12.487-12.278-27.982-18.453-44.607-22.162c-18.516-4.117-37.219-4.702-56.111-2.445  c-16.436,1.964-32.496,5.329-48.128,10.71c-23.918,8.244-47.02,18.369-69.13,30.678c-22.653,12.601-44.001,27.032-62.725,45.108  c-16.572,15.997-30.814,33.646-38.839,55.557c-3.427,9.383-5.893,19.028-3.594,29.174c2.947,13.061,9.383,24.367,17.847,34.565  c12.8,15.444,28.505,27.606,44.701,39.225c13.009,9.341,26.624,17.847,39.121,27.888c3.542,2.842,3.521,2.842-0.648,5.026  c-4.869,2.539-9.791,4.984-14.576,7.69C91.951,342.695,73.3,354.523,58.075,370.96c-7.492,8.098-12.581,17.189-14.952,27.282  c12.392,18.516,27.136,35.318,43.802,49.977c28.432-2.215,50.197-17.011,66.278-41.482c7.764-11.818,11.4-25.192,12.769-39.299  c1.202-12.434-0.063-24.472-3.72-36.342c-0.637-2.09-3.009-4.169-2.079-6.008c0.867-1.693,3.48-2.55,5.402-3.657  c7.753-4.504,15.527-8.944,23.51-13.531c0.345,1.714-0.324,2.717-0.616,3.803c-4.577,16.792-7.764,33.719-4.284,51.169  c2.163,10.867,5.768,21.096,12.622,30.093c7.053,9.258,22.8,8.202,29.194-0.251c6.071-8.025,10.094-17.074,14.284-26.081  c2.299-4.932,4.409-9.947,6.604-14.932c-0.408,5.998-0.387,11.849-0.167,17.68c0.219,5.747,1.139,11.421,4.127,16.499  c3.594,6.102,10.355,7.879,16.635,4.618c6.625-3.438,11.139-9.101,14.649-15.245c15.057-26.425,29.027-53.415,40.594-81.596  c2.466-5.987,4.995-11.964,7.785-18.62c0.428,2.184,0.711,3.521,0.972,4.859c2.57,13.427,7.147,26.133,13.772,38.076  c1.421,2.56,1.264,4.326-0.533,6.781c-6.102,8.307-12.79,16.123-19.383,24.022c-5.538,6.646-11.463,12.999-16.144,20.313  c-4.2,6.583-1.787,13.322,5.204,14.817c2.152,0.46,4.42,0.596,6.625,0.564c12.215-0.146,23.489-3.793,33.991-9.77  c14.137-8.056,22.518-19.864,22.131-36.676c-0.178-7.649-2.247-14.994-5.329-22.006c-0.679-1.557-0.711-2.685,0.303-4.148  c9.791-14.023,18.442-28.724,26.394-43.854c1.411-2.664,2.403-5.622,4.681-8.223c0.303,1.055,0.543,1.714,0.679,2.393  c2.529,12.539,5.935,24.795,12.33,35.986c1.755,3.062,0.878,4.618-1.546,6.666c-8.349,7.095-15.391,15.37-20.919,24.848  c-4.305,7.377-7.252,15.255-7.22,23.897c0.031,9.613,7.387,15.276,16.76,13.019c9.77-2.341,18.829-6.322,26.958-12.267  c17.711-12.967,22.904-26.645,17.356-45.735c-2.173-7.513-2.132-7.387,5.402-9.665c16.478-4.974,33.196-5.183,49.998-2.445  c1.902,0.313,3.783,0.669,5.642,1.076c0.982-5.966,1.755-12.006,2.299-18.119C489.441,274.192,467.978,276.919,446.767,284.975z   M98.586,419.401c-4.775,1.693-9.738,2.414-14.817,2.017c-6.322-0.502-10.334-4.963-10.742-11.672  c-0.46-7.732,1.829-14.712,5.214-21.504c6.154-12.33,16.488-20.699,27.032-28.912c10.25-7.993,21.264-14.817,32.402-21.452  c3.375-2.006,3.427-1.985,4.2,2.038c1.003,5.162,1.902,10.334,1.567,15.026C144.321,383.08,123.883,410.446,98.586,419.401z   M251.956,277.514c-1.776,11.86-5.653,23.155-9.78,34.314c-5.622,15.235-11.097,30.542-18.171,45.192  c-1.62,3.375-3.323,6.729-5.945,9.477c-2.476,2.602-4.671,2.299-6.384-0.878c-3.344-6.207-2.926-13.113-3.469-18.129  c0.157-25.161,8.6-45.725,22.507-64.209c3.887-5.151,8.85-9.341,15.423-11.024C250.598,271.12,252.656,272.917,251.956,277.514z   M349.341,352.005c-4.765,8.234-11.63,14.221-20.052,18.484c-0.899,0.449-2.058,1.243-2.873,0.188  c-0.773-0.993,0.47-1.651,1.034-2.278c8.37-9.143,16.635-18.359,24.085-28.275c0.115-0.157,0.397-0.178,1.034-0.449  C352.496,344.263,351.493,348.296,349.341,352.005z M407.134,351.65c-1.243,0.585-2.685,1.682-3.897,0.742  c-1.337-1.034-0.805-2.863-0.397-4.263c1.902-6.384,4.462-12.497,7.993-18.192c2.967-4.796,6.646-8.986,10.689-12.894  c1.63-1.567,2.361-1.379,2.915,0.878c0.575,2.309,0.627,4.618,0.669,6.969C425.002,337.753,418.471,346.311,407.134,351.65z" fill="#cd6699"/></g><g transform="matrix(0.0801019367872778 -0.060766989145808005 0.060766989145808005 0.0801019367872778 168.43755496113005 57.550253403783735)" id="L1_35"><path d="M512,256c0,45.265-11.745,87.782-32.36,124.677c0,0.01,0,0.01,0,0.01  c-3.897,6.969-8.108,13.74-12.612,20.281c-6.729,9.78-14.127,19.069-22.12,27.794c-34.994,38.254-81.45,65.839-133.935,77.312  C293.261,509.962,274.871,512,256,512s-37.271-2.038-54.983-5.925c-52.475-11.483-98.931-39.058-133.914-77.302  c-7.753-8.464-14.942-17.45-21.494-26.896c-4.754-6.823-9.174-13.897-13.249-21.191c0-0.01,0-0.01,0-0.01  C11.745,343.782,0,301.265,0,256C0,114.615,114.615,0,256,0S512,114.615,512,256z" fill="#2d3a3e"/><path d="M479.765,181.906v195.082c0,1.233-0.042,2.466-0.125,3.699  c-9.707,17.377-21.389,33.499-34.732,48.076l-133.935,77.312C293.261,509.962,274.871,512,256,512s-37.271-2.038-54.983-5.925  l-110.07-63.53l-23.845-13.772c-13.354-14.576-25.036-30.71-34.743-48.086c-0.084-1.233-0.125-2.466-0.125-3.699V181.906  c0-19.581,10.459-37.669,27.397-47.47l168.97-97.541c16.959-9.801,37.836-9.801,54.794,0l135.158,78.033l33.813,19.508  C469.305,144.238,479.765,162.325,479.765,181.906z" fill="#004284"/><path d="M472.837,155.261L45.61,401.878c-4.754-6.823-9.174-13.897-13.249-21.191c0-0.01,0-0.01,0-0.01  c-0.084-1.223-0.125-2.456-0.125-3.688V181.906c0-19.581,10.449-37.669,27.397-47.47l168.97-97.541  c16.948-9.801,37.825-9.801,54.784,0l135.168,78.033l33.813,19.508C461.093,139.483,468.093,146.745,472.837,155.261z" fill="#6399d4"/><path d="M479.765,181.906v195.082c0,1.233-0.042,2.466-0.125,3.688c0,0.01,0,0.01,0,0.01  c-3.897,6.969-8.108,13.74-12.612,20.281l-209.92-121.177l215.73-124.531C477.309,163.286,479.765,172.419,479.765,181.906z" fill="#00579e"/><g><path d="M321.663,317.048c-12.804,23.061-37.398,38.664-65.649,38.664   c-41.447,0-75.046-33.599-75.046-75.046s33.599-75.046,75.046-75.046c27.704,0,51.891,15.009,64.899,37.335l66.353-38.305   c-26.234-45.23-75.201-75.64-131.252-75.64c-83.754,0-151.654,67.885-151.654,151.654c0,83.754,67.901,151.654,151.654,151.654   c56.597,0,105.955-31.003,132.002-76.968L321.663,317.048z" fill="#f2f2f2"/><path d="M404.902,269.756 387.661,269.756 387.661,252.515 370.943,252.515 370.943,269.756    353.702,269.756 353.702,286.474 370.943,286.474 370.943,303.715 387.661,303.715 387.661,286.474 404.902,286.474z" fill="#f2f2f2"/><path d="M467.596,269.756 450.355,269.756 450.355,252.515 433.637,252.515 433.637,269.756    416.396,269.756 416.396,286.474 433.637,286.474 433.637,303.715 450.355,303.715 450.355,286.474 467.596,286.474z" fill="#f2f2f2"/></g></g><g transform="matrix(0.05524271812391427 0.08286407792137687 -0.08286407792137687 0.05524271812391427 39.07106810815043 292.6446602124055)" id="L1_36"><path d="M512,256c0,25.976-3.866,51.054-11.065,74.679c0,0.01,0,0.01-0.01,0.021  c-8.307,27.261-21.023,52.59-37.345,75.149v0.01c-23.27,32.172-53.844,58.723-89.276,77.218  c-10.439,5.454-21.295,10.209-32.507,14.19c-9.091,3.239-18.422,5.966-27.961,8.171h-0.01C295.236,509.733,275.895,512,256,512  c-41.535,0-80.75-9.885-115.43-27.439c-32.423-16.405-60.886-39.508-83.55-67.49c-20.605-25.412-36.425-54.847-46.122-86.946  C3.814,306.667,0,281.778,0,256C0,114.615,114.615,0,256,0S512,114.615,512,256z" fill="#264d6f"/><path d="M372.12,111.783V238.07c0,29.727-24.095,53.823-53.823,53.823H188.928  c-37.397,0-67.709,30.323-67.709,67.72v62.025H78.921c-7.659,0-15.015-1.515-21.901-4.566  c-20.605-25.412-36.425-54.847-46.122-86.946c-0.763-7.92-1.16-16.374-1.16-25.36c0-78.461,30.981-116.872,69.183-116.872h177.789  v-18.223H138.386v-57.887c0-29.393,52.328-53.227,116.872-53.227S372.12,82.39,372.12,111.783z" fill="#3876ac"/><circle cx="189" cy="116" r="21" fill="#f2f2f2"/><path d="M502.951,298.026c0,11.786-0.7,22.674-2.017,32.653c0,0.01,0,0.01-0.01,0.021  c-8.307,27.261-21.023,52.59-37.345,75.149v0.01c-9.028,6.029-19.132,9.028-29.8,9.028H255.99v18.233h118.314v49.957  c-10.439,5.454-21.295,10.209-32.507,14.19c-9.091,3.239-18.422,5.966-27.961,8.171h-0.01C295.236,509.733,275.895,512,256,512  c-41.535,0-80.75-9.885-115.43-27.439V364.722c0-29.727,24.106-53.833,53.833-53.833h129.369c37.397,0,67.709-30.313,67.709-67.709  v-62.025h42.297C471.98,181.154,502.951,218.77,502.951,298.026z" fill="#f7cd00"/><path d="M344.879,486.17c0,4.065-1.128,7.868-3.082,11.097c-9.091,3.239-18.422,5.966-27.961,8.171h-0.01  c-7.084-3.511-11.954-10.825-11.954-19.268c0-11.88,9.624-21.504,21.504-21.504C335.255,464.666,344.879,474.29,344.879,486.17z" fill="#f2f2f2"/></g><g transform="matrix(0.1171875 0 0 0.1171875 243 124)" id="L1_37"><path d="M512,256c0,77.939-34.826,147.738-89.778,194.696c-1.703,1.452-3.417,2.884-5.162,4.284  C373.07,490.642,317.032,512,256,512c-25.569,0-50.249-3.751-73.54-10.721c-1.254-0.376-2.497-0.752-3.741-1.149  C75.107,467.362,0,370.448,0,256C0,114.615,114.615,0,256,0S512,114.615,512,256z" fill="#f2f2f2"/><g><path d="M430.111,267.452c-0.084-0.345-0.178-0.7-0.272-1.045c-0.23-0.836-0.449-1.672-0.69-2.508   c-1.609-5.851-3.312-11.536-5.12-17.063c-0.355-1.108-0.721-2.205-1.097-3.291c-17.23-51.315-41.984-88.304-64.178-114.887   c-0.742-0.878-1.473-1.745-2.194-2.602c-5.59-6.572-10.992-12.487-16.039-17.805c-5.12-5.392-9.885-10.167-14.106-14.388   l-0.752-0.752c-3.709-3.709-7.534-7.095-11.463-10.156c-0.836-0.658-1.682-1.296-2.529-1.912   c-35.809-26.384-79.569-26.384-120.132,0.93l-2.936,1.766c-44.931,26.948-74.804,44.847-88.21,87.782   c-0.324,1.034-0.637,2.09-0.94,3.156c-2.006,7.001-3.594,14.66-4.754,23.103c0,0.031-0.01,0.073-0.01,0.104   c-0.993,7.22-1.034,14.545-0.303,21.901c0.575,5.851,1.63,11.734,3.082,17.607c0.261,1.055,0.533,2.111,0.815,3.166   c8.171,30.218,26.279,60.165,41.806,85.859c10.721,17.732,20.846,34.471,25.694,47.971c6.322,17.617,6.196,37.951,6.071,59.476   c-0.125,22.288-0.261,45.14,6.865,66.267c1.243,0.397,2.487,0.773,3.741,1.149c-7.732-21.264-7.596-44.628-7.471-67.396   c0.125-21.817,0.251-42.423-6.259-60.552c-4.953-13.803-15.151-30.668-25.955-48.536c-22.643-37.46-50.834-84.083-44.972-126.589   c8.485-61.45,40.072-80.394,92.411-111.783l2.967-1.776l0.073-0.052c19.895-13.396,40.114-20.156,60.259-20.156   c3.699,0,7.408,0.23,11.107,0.69c21.368,2.644,41.712,13.093,58.817,30.208c27.345,27.335,78.242,78.242,103.372,171.886   c17.492,65.191,12.831,135.91-9.749,187.758c1.745-1.4,3.459-2.832,5.162-4.284C442.943,399.036,446.84,330.71,430.111,267.452z" fill="#5c5560"/><path d="M358.181,129.699l-2.726-1.548c0.196-0.345,19.406-34.654,5.674-48.386   c-5.034-5.034-12.407-8.222-19.721-8.526c-9.741-0.401-19.603,4.089-28.51,12.995l-2.216-2.216   c9.543-9.544,20.205-14.362,30.857-13.911c11.645,0.485,19.13,6.765,21.807,9.442C378.758,92.962,359.028,128.207,358.181,129.699z   " fill="#5c5560"/><path d="M99.444,240.566c-28.336,0-38.62-18.926-38.62-31.647c0-13.97,5.293-37.406,40.746-37.406v3.135   c-14.047,0-37.611,4.452-37.611,34.272c0,11.461,9.45,28.512,35.486,28.512C99.444,237.431,99.444,240.566,99.444,240.566z" fill="#5c5560"/><path d="M263.931,73.968c-24.273,0-44.022,19.738-44.022,44.011s19.749,44.022,44.022,44.022   c24.263,0,44.011-19.749,44.011-44.022S288.193,73.968,263.931,73.968z M263.931,158.866c-22.549,0-40.887-18.338-40.887-40.887   c0-22.538,18.338-40.876,40.887-40.876c16.217,0,30.26,9.488,36.864,23.218c1.703,3.553,2.915,7.398,3.542,11.431v0.01   c0.313,2.027,0.47,4.106,0.47,6.217C304.807,140.528,286.469,158.866,263.931,158.866z" fill="#5c5560"/><path d="M161.52,124.97c-24.273,0-44.011,19.738-44.011,44.011s19.738,44.022,44.011,44.022   s44.022-19.749,44.022-44.022S185.793,124.97,161.52,124.97z M161.52,209.868c-22.538,0-40.876-18.338-40.876-40.887   c0-22.538,18.338-40.876,40.876-40.876c14.817,0,27.815,7.92,34.983,19.738c2.1,3.459,3.709,7.273,4.712,11.306   c0.773,3.156,1.191,6.447,1.191,9.833C202.407,191.53,184.069,209.868,161.52,209.868z" fill="#5c5560"/><circle cx="187" cy="158" r="13" fill="#5c5560"/><circle cx="290" cy="109" r="13" fill="#5c5560"/></g><g><ellipse cx="229px" cy="180px" rx="11px" ry="17px" transform="matrix(-0.5679 -0.8231 0.8231 -0.5679 210.5658 472.1169)" fill="#5c5560"/><path d="M213.028,223.024c-0.741,0-1.448-0.086-2.115-0.266c-1.647-0.447-3.851-1.703-5.001-5.151   c-5.348-16.041,8.267-28.301,18.106-32.261l1.17,2.908c-8.78,3.534-20.97,14.36-16.303,28.363c0.578,1.735,1.51,2.754,2.848,3.117   c4.082,1.111,12.158-3.276,22.158-12.028c3.39-2.966,7.772-4.728,12.337-4.958c8.053-0.406,26.782-2.456,26.782-12.67   c0-7.191-5.739-11.121-9.159-12.823c-8.387-4.175-19.198-3.638-25.703,1.277l-1.89-2.501c7.404-5.593,19.595-6.258,28.991-1.583   c6.925,3.447,10.896,9.144,10.896,15.63c0,12.442-18.644,15.24-29.758,15.802c-3.865,0.195-7.569,1.681-10.43,4.187   C228.979,216.17,219.667,223.023,213.028,223.024z" fill="#5c5560"/><path d="M242.044,242.759c-1.523,0-2.989-0.399-4.384-1.197c-6.786-3.883-10.19-16.483-11.851-26.37   l3.092-0.519c2.158,12.843,5.918,21.651,10.316,24.169c1.631,0.933,3.369,1.026,5.308,0.285c4.641-1.767,7.367-4.127,8.101-7.016   c1.006-4.012-2.046-8.382-4.009-10.332c-1.95-1.95-4.591-7.422-7.854-16.266l2.94-1.085c2.974,8.06,5.571,13.575,7.126,15.13   c3.018,2.996,6.099,8.286,4.836,13.319c-1.002,3.94-4.374,7.027-10.024,9.178C244.412,242.525,243.211,242.759,242.044,242.759z" fill="#5c5560"/><path d="M262.863,235.856c-2.65,0-5.753-0.631-9.247-1.884l1.058-2.951c3.557,1.276,6.716,1.854,9.128,1.666   c2.959-0.228,4.838-1.567,5.744-4.094c1.81-5.069-1.975-14.019-10.658-25.201l2.475-1.923c6.624,8.529,13.933,20.343,11.134,28.179   c-1.329,3.71-4.253,5.841-8.455,6.164C263.66,235.842,263.266,235.856,262.863,235.856z" fill="#5c5560"/><path d="M445.238,271.83c-2.542,0-5.577-1.087-9.05-2.329c-2.555-0.914-5.45-1.951-8.708-2.799l0.79-3.033   c3.394,0.884,6.359,1.946,8.976,2.882c5.421,1.939,8.566,2.96,10.183,1.344c4.501-4.514,8.48-13.88,2.72-19.641   c-3.096-3.096-7.377-2.598-13.299-1.907c-4.496,0.523-9.595,1.119-15.326,0.165l0.514-3.092c5.293,0.88,10.157,0.313,14.449-0.187   c6.283-0.734,11.709-1.366,15.878,2.805c5.239,5.239,5.655,15.675-2.719,24.072C448.406,271.347,446.932,271.83,445.238,271.83z" fill="#5c5560"/><path d="M452.221,265.582c-0.324,0-0.651-0.1-0.931-0.307c-0.697-0.514-0.843-1.496-0.328-2.192   c0.488-0.66,0.638-1.289,0.473-1.981c-0.563-2.358-4.468-4.787-5.792-5.45c-0.773-0.389-1.087-1.329-0.698-2.103   c0.387-0.773,1.326-1.088,2.101-0.7c0.655,0.327,6.428,3.318,7.437,7.52c0.382,1.592,0.037,3.175-1.001,4.578   C453.175,265.362,452.702,265.582,452.221,265.582z" fill="#5c5560"/><path d="M360.647,304.191c-10.156-10.93-35.224-7.941-36.289-7.805l-1.902,0.23l0.606,1.818   c0.042,0.125,4.044,12.518-3.469,23.092l-0.021,0.031c-2.696,3.793-6.583,6.949-11.557,9.383c-0.773,0.376-1.097,1.317-0.721,2.1   c0.272,0.554,0.836,0.878,1.411,0.878c0.23,0,0.47-0.052,0.69-0.167c5.172-2.529,9.3-5.81,12.278-9.759   c9.08-0.355,16.551,2.602,22.58,4.984c5.841,2.299,10.459,4.117,14.232,2.058c0.46-0.251,0.888-0.543,1.285-0.909   c0.073-0.052,0.146-0.105,0.209-0.178c1.975-1.849,3.375-5.036,4.336-9.843C365.62,313.574,364.387,308.214,360.647,304.191z    M361.242,319.488c-0.167,0.857-0.355,1.64-0.554,2.372c-0.826,3.082-1.881,5.099-3.208,6.092c-0.157,0.125-0.324,0.23-0.491,0.324   c-2.497,1.358-6.51-0.219-11.588-2.215c-5.831-2.309-12.946-5.11-21.671-5.225c4.869-8.694,3.668-17.69,2.811-21.514   c5.81-0.46,24.179-1.212,31.807,7.001C361.409,309.614,362.36,313.919,361.242,319.488z" fill="#5c5560"/><path d="M358.865,330.417c-0.149,0-0.301-0.022-0.451-0.067c-0.829-0.249-1.3-1.122-1.05-1.952   c2.752-9.172-5.833-13.574-6.199-13.757c-0.773-0.386-1.09-1.325-0.707-2.099c0.383-0.774,1.319-1.092,2.094-0.713   c3.936,1.935,10.634,8.076,7.815,17.47C360.162,329.978,359.539,330.417,358.865,330.417z" fill="#5c5560"/><path d="M326.206,95.879c0.131-6.685,5.571-12.027,12.272-12.027c6.784,0,12.289,5.489,12.289,12.289   c0,6.783-5.506,12.289-12.289,12.289c-0.017,0-0.032,0-0.049,0L326.206,95.879z" fill="#5c5560"/><path d="M96.373,197.204c-4.981,1.573-8.586,6.227-8.586,11.715c0,5.358,3.441,9.913,8.225,11.584   L96.373,197.204z" fill="#5c5560"/></g></g><g transform="matrix(0.08010194204539617 0.03866990226231295 -0.03866990226231295 0.08010194204539617 320.3933978155307 234.59440785722646)" id="L1_38"><path d="M512,256c0,15.485-1.379,30.647-4.012,45.369C486.578,421.115,381.9,512,256,512  c-94.856,0-177.664-51.587-221.884-128.24c-10.794-18.693-19.278-38.87-25.088-60.155C3.135,302.07,0,279.395,0,256  C0,114.615,114.615,0,256,0c116.694,0,215.144,78.075,245.979,184.842C508.5,207.433,512,231.309,512,256z" fill="#8f9ed1"/><g><path d="M130.173,178.239H35.892L9.028,323.605c5.81,21.285,14.294,41.462,25.088,60.155h8.746   l10.407-56.299h51.806c63.08,0,80.039-56.633,84.104-84.449C193.254,215.207,172.91,178.239,130.173,178.239z M143.851,247.703   c-2.309,15.768-13.96,47.877-49.716,47.877H59.162l15.632-84.605h35.6C145.095,210.975,146.16,231.936,143.851,247.703z" fill="#f2f2f2"/><path d="M501.979,184.842c-8.014-4.138-17.565-6.604-28.599-6.604h-94.281L341.117,383.76h44.951   l10.407-56.299h51.806c28.056,0,46.989-11.201,59.705-26.091C510.621,286.647,512,271.485,512,256   C512,231.309,508.5,207.433,501.979,184.842z M487.058,247.703c-2.309,15.768-13.96,47.877-49.727,47.877h-34.962l15.632-84.605   h35.6C488.302,210.975,489.367,231.936,487.058,247.703z" fill="#f2f2f2"/><path d="M309.238,178.919c-18.295,0-42.704,0-54.597,0l10.248-55.451h-44.766L182.14,328.984h44.766   l21.843-118.186c8.07,0,18.79,0,28.61,0c18.991,0,31.879,4.07,29.165,21.705c-2.713,17.635-18.313,95.636-18.313,95.636h45.444   c0,0,17.635-86.818,20.348-111.237C356.717,192.484,334.334,178.919,309.238,178.919z" fill="#f2f2f2"/></g></g><g transform="matrix(0.09943689250460805 -0.04695630858660581 0.04695630858660581 0.09943689250460805 194.52334052064924 280.5649705169914)" id="L1_40"><path d="M512,256c0,33.353-6.374,65.212-17.983,94.438c-6.207,15.632-13.908,30.511-22.936,44.45  c-11.243,17.387-24.545,33.322-39.549,47.449c-8.788,8.286-18.15,15.945-28.035,22.925C361.806,494.707,310.93,512,256,512  s-105.806-17.293-147.498-46.738c-12.372-8.735-23.928-18.526-34.534-29.268C28.233,389.757,0,326.165,0,256  S28.233,122.243,73.968,76.006c11.233-11.368,23.531-21.682,36.728-30.793C151.97,16.697,202.031,0,256,0  s104.03,16.697,145.304,45.213c10.083,6.949,19.634,14.618,28.588,22.925c15.684,14.503,29.539,30.96,41.19,48.974  c9.028,13.939,16.729,28.818,22.936,44.45C505.626,190.788,512,222.647,512,256z" fill="#e4ba42"/><g><path d="M391.05,232.97c-7.125-20.664-36.341-20.664-42.04-3.563c-5.7,17.101,13.539,27.076,43.466,37.053   c29.927,9.976,48.454,36.341,44.891,59.854s-13.539,54.154-72.68,54.154c-36.963,0-57.505-23.103-67.714-40.429l33.511-20.138   c0,0,11.401,24.227,32.777,24.227c21.377,0,29.927-7.125,29.927-23.514c0-19.951-69.118-27.076-79.806-61.279   s3.563-82.656,53.441-79.094c31.175,2.227,48.71,17.535,57.478,28.703L391.05,232.97z" fill="#f2f2f2"/><path d="M235.714,183.805c0,0,0,120.421,0,136.81c0,16.388-14.251,24.94-28.502,22.089   c-14.251-2.85-20.664-19.951-20.664-19.951l-32.777,22.089c0,0,7.125,32.777,52.016,35.628   c44.891,2.85,70.542-24.227,70.542-47.029s0-149.636,0-149.636L235.714,183.805L235.714,183.805z" fill="#f2f2f2"/><path d="M73.968,45.213v390.781c10.606,10.742,22.162,20.532,34.534,29.268h294.996   c9.885-6.98,19.247-14.639,28.035-22.925H96.893V68.138h374.188v326.75c9.028-13.939,16.729-28.818,22.936-44.45V45.213H73.968z" fill="#f2f2f2"/></g><circle cx="87" cy="339" r="40" fill="#3f4a43"/></g><g transform="matrix(0.11048543046137553 -0.04695630727663749 0.04695630727663749 0.11048543046137553 6.694915139068669 199.73654446470707)" id="L1_41"><path d="M512,256c0,36.937-7.826,72.056-21.911,103.769c-2.288,5.183-4.765,10.271-7.387,15.266  C439.85,456.474,354.408,512,256,512c-103.685,0-192.972-61.639-233.221-150.277c-7.022-15.464-12.549-31.744-16.394-48.661  C2.205,294.713,0,275.613,0,256C0,114.615,114.615,0,256,0c115.012,0,212.302,75.839,244.611,180.245  c1.024,3.323,1.985,6.687,2.884,10.073v0.01c1.672,6.332,3.114,12.737,4.305,19.247c0.554,3.03,1.055,6.071,1.494,9.132  c0.303,2.048,0.585,4.096,0.825,6.165c0.46,3.699,0.825,7.429,1.118,11.18C511.739,242.636,512,249.292,512,256z" fill="#f2f2f2"/><g><path d="M367.961,77.614c0,0,7.42,7.632,8.691,13.355c0,0,5.3-4.028,1.696-10.387   C374.744,74.222,367.961,77.614,367.961,77.614z" fill="#5181a2"/><path d="M503.495,190.318c-6.666-3.354-12.727-5.339-17.471-6.51c-6.416-1.588-11.609-6.311-13.855-12.528   c-2.884-7.973-8.255-20.888-18.139-40.458c-19.508-38.578-41.127-50.448-55.327-60.416c-9.32-6.541-21.567-7.868-28.881-8.014   c-3.688-0.073-7.241-1.421-10.073-3.793c-7.45-6.269-22.1-13.636-26.76-10.877c-5.726,3.396,0,11.243,8.046,21.201   c8.056,9.968,9.759,20.992,15.475,35.83c2.644,6.844,5.831,10.982,8.485,13.448c2.779,2.591,3.688,6.614,2.215,10.104   c-5.371,12.696-7.168,28.776-4.127,43.645c3.605,17.596,11.87,17.387,11.87,17.387c-0.846-23.531,11.452-33.708,11.452-33.708   c11.233,34.335,36.885,59.988,36.885,59.988c-20.773-7.419-36.247-41.336-36.247-41.336s-1.693,1.693-3.177,12.936   c-1.484,11.233-15.057,18.014-25.015-6.572c-9.968-24.597,2.967-55.547,2.967-55.547c-5.726-2.968-17.596-30.312-17.596-34.555   c0-4.232-4.671-13.563-10.386-19.289c-5.726-5.716-16.959-22.256-3.814-29.884c13.134-7.638,39.215,12.925,39.215,12.925   c41.127-1.484,83.519,48.546,90.3,66.351c6.781,17.805,25.861,53.426,25.861,53.426c5.413,1.641,10.501,3.762,15.214,6.175   C501.635,183.568,502.596,186.932,503.495,190.318z" fill="#5181a2"/><path d="M511.237,236.053c-0.209-0.094-0.408-0.199-0.606-0.293c-13.145-6.363-18.442-19.717-18.442-19.717   c3.406-3.406,9.446-5.36,15.611-6.468c0.554,3.03,1.055,6.071,1.494,9.132c-2.299,0.449-3.751,0.721-3.751,0.721   c0,1.296,1.808,3.229,4.577,5.444C510.579,228.571,510.945,232.302,511.237,236.053z" fill="#5181a2"/></g><g><path d="M133.371,374.659H113.34c0,0,0-45.777-6.677-100.153L75.18,374.659H58.964l-31.953-99.673   c0,0-3.72,29.288-4.232,86.737c-7.022-15.464-12.549-31.744-16.394-48.661c1.473-21.264,3.542-44.44,6.322-63.352h26.07   l29.727,92.526l31.483-92.526h23.845C123.831,249.71,133.371,331.264,133.371,374.659z" fill="#ffa600"/><path d="M144.423,283.452l20.668-0.318c0,0,23.212,69.637,20.987,78.222c0,0,14.945-41.655,18.761-78.222   h20.35c0,0-10.812,73.771-43.88,112.564c-12.375,14.517-26.262,14.695-38.799,9.236v-11.143c0,0,17.177,6.042,26.081-6.678   c7.168-10.24,0.322-27.898-5.938-46.671C161.135,335.896,144.423,283.452,144.423,283.452z" fill="#ffa600"/></g><g><path d="M237.908,365.491l5.405-10.812c0,0,37.204,16.534,46.742,0c9.539-16.534,0.318-25.438-18.442-35.296   c-18.76-9.858-38.475-22.258-29.89-49.287c8.586-27.028,54.056-25.12,67.093-12.083l-4.451,10.493c0,0-33.705-14.309-42.926,4.451   c-9.221,18.76,15.263,27.664,20.987,30.208c5.724,2.544,37.521,15.58,34.024,38.793s-17.807,37.521-50.558,34.659   C254.124,373.758,247.447,371.85,237.908,365.491z" fill="#5181a2"/><path d="M405.452,367c14.054-11.295,20.083-31.389,20.083-54.293c0-35.328-10.167-63.969-50.333-63.969   c-34.586,0-50.333,28.641-50.333,63.969s11.515,63.969,50.333,63.969c5.622,0,10.721-0.7,15.318-2.017l29.905,17.544l7.314-14.315   L405.452,367z M375.202,361.357c-22.507,0-29.184-21.786-29.184-48.65c0-26.875,6.363-48.65,29.184-48.65   c23.28,0,29.174,21.776,29.174,48.65C404.375,339.571,398.482,361.357,375.202,361.357z" fill="#5181a2"/><path d="M490.088,359.769c-2.288,5.183-4.765,10.271-7.387,15.266h-39.382V250.378h19.717v109.39H490.088z" fill="#5181a2"/></g></g><g transform="matrix(0.09115048272643604 -0.013810679340100083 0.013810679340100083 0.09115048272643604 86.12994251096676 58.201010333098)" id="L1_42"><path d="M512,256c0,84.344-40.793,159.159-103.717,205.803c-26.342,19.519-56.56,34.105-89.287,42.381  C298.841,509.294,277.744,512,256,512s-42.851-2.706-63.007-7.816c-32.726-8.276-62.945-22.862-89.287-42.392  C40.782,415.148,0,340.334,0,256C0,114.615,114.615,0,256,0S512,114.615,512,256z" fill="#5adafd"/><g><path d="M408.545,400.144c-1.202-8.056-2.79-16.353-4.754-24.837c-1.735-7.45-3.751-15.047-6.039-22.758   c-6.019-20.25-13.949-41.294-23.562-62.568c-4.211-9.3-8.746-18.641-13.584-27.972c-4.263-8.223-8.756-16.457-13.49-24.639   c-4.723-8.192-9.592-16.196-14.597-24.001c-5.653-8.85-11.473-17.439-17.429-25.736c-13.605-18.965-27.867-36.362-42.402-51.702   c-5.527-5.841-11.097-11.379-16.687-16.593c-6.363-5.956-12.758-11.483-19.143-16.551c-41.681-33.092-78.994-43.029-105.085-27.972   c-26.091,15.067-36.143,52.349-28.327,105.002c1.191,8.056,2.79,16.353,4.765,24.837c1.714,7.45,3.73,15.047,6.029,22.758   c6.019,20.25,13.949,41.305,23.573,62.568c4.201,9.3,8.735,18.63,13.573,27.961c4.263,8.234,8.767,16.457,13.49,24.649   c4.723,8.192,9.592,16.196,14.597,24.001c5.663,8.861,11.483,17.45,17.429,25.746c13.605,18.965,27.867,36.352,42.402,51.691   c5.528,5.841,11.107,11.389,16.697,16.603c6.363,5.956,12.758,11.473,19.132,16.541c15.329,12.173,30.062,21.211,43.865,27.011   c32.726-8.276,62.945-22.862,89.286-42.381C411.961,444.855,412.097,424.093,408.545,400.144z M385.076,458   c-3.041,13.145-8.631,22.152-16.624,26.76c-7.983,4.618-18.578,4.953-31.483,1.024c-13.981-4.274-30.302-13.615-47.208-27.042   c-5.684-4.514-11.379-9.425-17.074-14.702c-5.58-5.183-11.16-10.721-16.697-16.583c-9.509-10.062-18.913-21.076-28.087-32.893   c-6.123-7.889-12.152-16.133-18.035-24.691c-8.537-12.403-16.781-25.464-24.618-39.048c-7.847-13.584-15.036-27.251-21.504-40.845   c-4.472-9.373-8.6-18.714-12.361-27.961c-5.653-13.855-10.491-27.512-14.451-40.772c-2.299-7.732-4.315-15.318-5.998-22.747   c-1.735-7.565-3.145-14.963-4.211-22.141c-3.176-21.347-3.103-40.155,0.188-54.397c3.041-13.145,8.641-22.152,16.624-26.76   c4.315-2.487,9.383-3.741,15.161-3.741c4.932,0,10.386,0.909,16.321,2.727c13.981,4.263,30.302,13.615,47.208,27.032   c5.684,4.514,11.389,9.425,17.074,14.723c5.59,5.172,11.16,10.71,16.687,16.562c9.519,10.062,18.923,21.076,28.108,32.904   c6.123,7.889,12.152,16.133,18.035,24.691c8.526,12.403,16.771,25.464,24.607,39.037c7.847,13.584,15.036,27.251,21.504,40.845   c4.472,9.383,8.6,18.725,12.361,27.972c5.653,13.855,10.491,27.502,14.451,40.761c2.299,7.732,4.315,15.318,6.008,22.747   c1.724,7.565,3.135,14.963,4.201,22.141C388.441,424.95,388.368,443.758,385.076,458z" fill="#f2f2f2"/><path d="M427.677,212.961c-7.576-2.988-15.559-5.757-23.897-8.307c-7.314-2.226-14.9-4.284-22.727-6.154   c-20.543-4.911-42.736-8.568-65.964-10.867c-10.146-1.014-20.501-1.755-30.992-2.226c-9.258-0.428-18.641-0.648-28.097-0.648   s-18.84,0.219-28.108,0.648c-10.501,0.47-20.856,1.223-31.002,2.226c-23.228,2.299-45.411,5.956-65.954,10.867   c-7.826,1.87-15.412,3.929-22.727,6.154c-8.338,2.539-16.321,5.319-23.897,8.307C34.816,232.5,7.544,259.856,7.544,289.98   c0,30.124,27.272,57.48,76.769,77.03c7.576,2.988,15.548,5.757,23.886,8.307c7.314,2.226,14.9,4.284,22.727,6.144   c20.543,4.921,42.736,8.568,65.975,10.877c10.146,1.003,20.501,1.745,31.002,2.226c9.258,0.428,18.641,0.637,28.097,0.637   c9.456,0,18.829-0.209,28.087-0.637c10.501-0.481,20.846-1.223,31.002-2.226c23.228-2.299,45.432-5.956,65.975-10.877   c7.826-1.87,15.412-3.918,22.727-6.154c8.328-2.539,16.311-5.308,23.886-8.297c49.507-19.55,76.769-46.905,76.769-77.03   C504.445,259.856,477.184,232.5,427.677,212.961z M466.045,317.753c-10.679,9.979-26.937,19.435-47.01,27.366   c-6.76,2.664-13.866,5.151-21.285,7.429c-7.283,2.247-14.858,4.305-22.695,6.165c-13.469,3.208-27.711,5.841-42.538,7.879   c-9.885,1.369-20.031,2.466-30.386,3.271c-15.015,1.202-30.448,1.808-46.132,1.808s-31.117-0.606-46.132-1.797   c-10.355-0.815-20.511-1.912-30.396-3.281c-14.827-2.038-29.069-4.671-42.538-7.879c-7.837-1.86-15.412-3.918-22.695-6.165   c-7.419-2.278-14.524-4.765-21.285-7.429c-20.072-7.931-36.331-17.387-47.01-27.366c-9.864-9.206-14.869-18.547-14.869-27.773   c0-9.226,5.005-18.568,14.869-27.773c10.679-9.979,26.937-19.435,47.01-27.366c6.76-2.664,13.866-5.151,21.285-7.429   c7.283-2.247,14.858-4.305,22.695-6.165c13.469-3.208,27.711-5.841,42.538-7.879c9.885-1.369,20.041-2.466,30.396-3.281   c15.015-1.191,30.448-1.797,46.132-1.797s31.117,0.606,46.132,1.808c10.355,0.805,20.501,1.902,30.386,3.271   c14.827,2.038,29.069,4.671,42.538,7.879c7.837,1.86,15.412,3.918,22.695,6.165c7.419,2.278,14.524,4.765,21.285,7.429   c20.072,7.931,36.331,17.387,47.01,27.366c9.864,9.206,14.869,18.547,14.869,27.773   C480.914,299.207,475.909,308.548,466.045,317.753z" fill="#f2f2f2"/><path d="M380.217,74.815c-26.091-15.057-63.404-5.12-105.085,27.972   c-6.374,5.068-12.769,10.595-19.132,16.551c-5.59,5.214-11.17,10.762-16.697,16.603c-14.535,15.339-28.797,32.726-42.412,51.691   c-5.945,8.296-11.766,16.886-17.418,25.736c-5.005,7.805-9.874,15.809-14.597,24.001c-4.723,8.192-9.226,16.415-13.49,24.649   c-4.838,9.331-9.373,18.672-13.573,27.961c-9.624,21.274-17.554,42.318-23.573,62.568c-2.299,7.722-4.315,15.318-6.04,22.768   c-1.964,8.485-3.563,16.771-4.754,24.827c-3.553,23.939-3.417,44.701,0.261,61.649c26.342,19.529,56.56,34.116,89.287,42.392   c13.803-5.799,28.536-14.838,43.865-27.011c6.384-5.068,12.779-10.595,19.143-16.541c5.59-5.214,11.16-10.752,16.687-16.593   c14.524-15.339,28.797-32.737,42.402-51.702c5.945-8.297,11.766-16.886,17.429-25.746c5.005-7.805,9.874-15.809,14.597-24.001   c4.733-8.182,9.226-16.405,13.49-24.639c4.838-9.331,9.373-18.672,13.584-27.972c9.613-21.264,17.544-42.318,23.562-62.568   c2.288-7.711,4.305-15.308,6.029-22.758c1.975-8.485,3.563-16.781,4.765-24.837C416.36,127.164,406.309,89.882,380.217,74.815z    M375.056,221.247c-3.96,13.26-8.798,26.906-14.451,40.761c-3.762,9.247-7.889,18.589-12.361,27.972   c-6.468,13.594-13.657,27.261-21.504,40.845c-7.837,13.573-16.081,26.634-24.607,39.037c-5.893,8.568-11.922,16.812-18.045,24.701   c-9.174,11.818-18.578,22.831-28.097,32.893c-5.527,5.851-11.097,11.389-16.687,16.572c-5.684,5.287-11.389,10.198-17.074,14.712   c-16.906,13.427-33.228,22.768-47.208,27.042c-12.904,3.929-23.5,3.594-31.483-1.024c-7.983-4.608-13.584-13.615-16.624-26.76   c-3.291-14.242-3.365-33.05-0.188-54.397c1.066-7.178,2.476-14.576,4.2-22.141c1.693-7.429,3.709-15.015,6.008-22.747   c3.96-13.26,8.798-26.917,14.451-40.772c3.762-9.247,7.889-18.589,12.361-27.961c6.468-13.594,13.657-27.261,21.504-40.845   c7.837-13.584,16.081-26.645,24.618-39.048c5.883-8.558,11.901-16.802,18.024-24.68c9.185-11.828,18.589-22.841,28.097-32.904   c5.538-5.862,11.118-11.4,16.697-16.572c5.695-5.287,11.389-10.198,17.074-14.712c16.906-13.416,33.228-22.768,47.208-27.032   c5.935-1.818,11.389-2.727,16.321-2.727c5.778,0,10.856,1.254,15.161,3.741c7.993,4.608,13.584,13.615,16.624,26.76   c3.291,14.242,3.365,33.05,0.188,54.397c-1.066,7.178-2.476,14.576-4.211,22.141C379.371,205.928,377.354,213.514,375.056,221.247z   " fill="#f2f2f2"/><circle cx="256" cy="289" r="46" fill="#f2f2f2"/></g></g><g transform="matrix(0.12982037915735503 0.01933495018730445 -0.01933495018730445 0.12982037915735503 270.71573018366706 -18.183764312232825)" id="L1_43"><path d="M512,256c0,94.187-50.866,176.504-126.642,220.954c-2.038,1.202-4.106,2.372-6.186,3.511  C342.632,500.569,300.659,512,256,512c-34.544,0-67.48-6.844-97.541-19.247c-4.827-1.985-9.582-4.117-14.252-6.395  C58.838,444.865,0,357.303,0,256C0,114.615,114.615,0,256,0S512,114.615,512,256z" fill="#f2f2f2"/><g><path d="M289.623,4.605c7.587,28.969,5.518,43.454-34.487,76.562s-46.213,33.797-46.213,54.489   s30.694,53.455,45.523,62.767c0,0-2.414-5.863-7.932-14.829c-5.518-8.966-22.416-24.141-19.313-47.247s51.903-52.593,64.491-74.837   C304.279,39.264,301.349,20.469,289.623,4.605z" fill="#de0a17"/><path d="M333.767,77.717c-34.487,11.381-77.251,29.314-77.251,64.146s22.071,28.279,22.071,46.902   s-12.071,24.141-12.071,24.141s31.728-12.071,30.349-36.212s-20.347-20.692-20.347-43.109   C276.518,105.211,333.767,77.717,333.767,77.717z" fill="#de0a17"/><path d="M211.682,201.182c-34.487,0-58.283,12.76-58.283,20.002s42.419,14.14,88.287,11.036   s70.009-6.897,88.287-17.934c0,0-32.418,7.587-57.249,7.587s-95.794,4.438-94.149-6.208c1.645-10.645,42.765-14.484,42.765-14.484   L211.682,201.182L211.682,201.182z" fill="#de0a17"/><path d="M198.921,241.531c-18.278,6.553-23.107,13.105-12.415,20.003   c10.691,6.897,31.728,8.966,60.697,8.966s69.32-10.002,69.32-10.002l-13.105-10.347c0,0-17.934,6.553-52.076,6.553   S182.885,257.568,198.921,241.531z" fill="#de0a17"/><path d="M207.198,280.502c-17.934,6.208-21.727,14.484-5.863,22.071c15.864,7.587,46.213,8.966,68.629,5.863   c22.416-3.103,41.384-10.002,41.384-10.002s-12.243-4.656-17.934-10.347c0,0-26.21,5.518-51.041,5.518   S197.542,290.158,207.198,280.502z" fill="#de0a17"/><path d="M341.009,203.25c0,0,8.621-11.726,30.349-2.759c21.727,8.966,21.037,33.108,1.379,47.592   s-43.454,19.313-43.454,19.313s44.144-19.313,43.109-43.109C371.358,200.492,351.009,201.182,341.009,203.25z" fill="#de0a17"/><path d="M164.435,328.78c67.943,12.415,171.404-0.342,189.676-4.821   c18.282-4.49,11.588-14.216,11.588-14.216c4.469,3.156,6.456,6.632,4.625,10.419c-10.005,20.692-105.189,24.137-133.124,24.137   s-112.773-1.718-112.773-16.895c0-14.991,40.029-24.262,54.969-20.816C151.295,314.627,134.617,323.328,164.435,328.78z" fill="#de0a17"/><path d="M172.194,350.941c0,0,24.055,18.364,143.811,7.759c47.851-3.88,67.767-15.778,70.354-28.969   c0,0-21.986,12.415-49.145,17.589C310.057,352.494,265.309,360.512,172.194,350.941z" fill="#de0a17"/><path d="M169.88,377.49h-19.884c0.439,16.687,0.878,31.347,0.878,46.582c0,11.609-0.439,25.245-0.439,38.881   c0,9.007-2.058,16.603-6.228,23.406c4.671,2.278,9.425,4.409,14.252,6.395c7.147-8.652,11.212-19.383,10.982-32.841   c-0.293-11.034-0.293-25.245-0.293-35.84C169.148,408.252,169.441,392.871,169.88,377.49z" fill="#de0a17"/><path d="M303.762,405.64l-12.048,35.694c-2.173,6.531-3.772,12.769-5.224,19.007h-1.306   c-1.014-6.384-2.466-12.184-4.932-19.007l-3.918-11.463c-2.905-8.119-5.371-16.687-7.544-24.952l-20.02,2.466l27.857,72.255   l14.367-1.452l16.969-43.959c3.344-8.558,7.69-18.725,11.755-27.721L303.762,405.64z" fill="#de0a17"/><path d="M359.664,404.908c-8.119,0-17.408,1.745-29.738,8.568l3.187,11.316l1.16,0.721   c7.983-5.799,15.099-8.558,20.605-8.558c7.398,0,12.915,4.932,12.915,12.779v6.374c-31.775,4.796-39.612,14.66-39.612,26.122   c0,12.048,8.568,18.568,18.139,18.568c7.983,0,14.942-4.786,21.191-10.01l1.296,0.293c1.296,6.52,5.601,8.986,10.365,9.383   c2.079-1.139,4.148-2.309,6.186-3.511v-49.403C385.358,412.317,376.215,404.908,359.664,404.908z M367.794,461.939   c-5.214,4.504-9.571,6.823-13.49,6.823c-4.932,0-8.997-3.187-8.997-9.435c0-6.677,4.493-11.609,22.486-14.221V461.939z" fill="#de0a17"/><path d="M215.009,404.919c-8.119,0-17.408,1.735-29.748,8.558l3.197,11.316l1.16,0.731   c7.983-5.81,15.088-8.568,20.605-8.568c7.398,0,12.915,4.932,12.915,12.769v6.384c-31.775,4.796-39.612,14.66-39.612,26.122   c0,12.048,8.558,18.568,18.139,18.568c7.973,0,14.942-4.786,21.18-10.01l1.306,0.293c1.452,7.398,6.823,9.582,12.33,9.435   c1.358,0,2.779-0.167,4.211-0.47v-52.496C240.692,412.317,231.549,404.919,215.009,404.919z M223.138,461.939   c-5.224,4.504-9.582,6.823-13.5,6.823c-4.932,0-8.997-3.197-8.997-9.435c0-6.677,4.504-11.609,22.497-14.221V461.939z" fill="#de0a17"/></g></g><g transform="matrix(0.08286407505850536 0.06352912758462048 -0.06352912758462048 0.08286407505850536 74.05025344668547 107.52334012335979)" id="L1_44"><path d="M512,256c0,141.385-114.615,256-256,256C125.555,512,17.899,414.438,2.027,288.298  C0.69,277.723,0,266.94,0,256c0-20.041,2.299-39.549,6.656-58.264C33.029,84.428,134.656,0,256,0  c121.041,0,222.469,84.01,249.135,196.901c3.5,14.764,5.705,30.02,6.51,45.641C511.885,247.003,512,251.486,512,256z" fill="#f2f2f2"/><path d="M243.195,276.559 243.195,210 185.553,176.721 127.912,210 127.912,276.559 185.553,309.838z" fill="#3b8739"/><path d="M470.204,266.459l37.564,21.692l-37.564,21.692l-57.637-33.28v-66.56l57.637-33.28l34.931,20.177  c3.5,14.764,5.705,30.02,6.51,45.641l-21.358,12.33v-23.186l-20.083-11.588l-20.083,11.588v23.186L470.204,266.459z" fill="#333333"/><path d="M481.392,249.74 481.392,236.82 470.203,230.36 459.013,236.82 459.013,249.74   470.203,256.201z" fill="#66a060"/><path d="M100.686,210.004v87.771l-38.442-21.932v-44.993L43.05,219.763l-19.195,11.086v44.993L2.027,288.298  C0.69,277.723,0,266.94,0,256c0-20.041,2.299-39.549,6.656-58.264l36.394-21.013L100.686,210.004z" fill="#333333"/><rect x="127px" y="210px" width="115px" height="66px" transform="matrix(0.5 0.866 -0.866 0.5 303.4564 -39.0495)" fill="#6da75d"/><path d="M127.912,276.559 147.704,244.283 127.912,210z" fill="#55a344"/><path d="M223.979,243.277 243.195,210 185.553,176.721z" fill="#639d57"/><path d="M346.551,99.579v88.304l-19.32-11.16l-57.647,33.28v66.56l57.647,33.28l57.637-33.28V120.09  L346.551,99.579z M346.446,254.37l-19.216,11.097l-19.216-11.097v-22.183l19.216-11.097l19.216,11.097V254.37z" fill="#333333"/><g><path d="M282.149,358.717c0,0-1.132-9.729-11.539-9.729c-10.408,0-17.534,1.357-17.534,7.127   s20.25,5.77,27.943,8.032c7.693,2.262,14.48,8.145,11.086,18.553c-3.394,10.408-13.802,11.539-29.866,11.539   s-19.685-13.35-19.685-18.553h9.05c0,0-1.132,8.145,9.502,9.502c10.634,1.357,20.802,2.121,22.173-6.108   c1.81-10.861-34.391-5.43-37.559-16.064c-2.676-8.985-1.132-20.815,16.969-22.626c18.101-1.811,28.056,6.181,28.056,18.101   L282.149,358.717z" fill="#66a060"/><path d="M194.723,401.131l20.008,11.551c10.053,5.804,22.619-1.451,22.619-13.059v-20.242v-37.253h-8.155   v55.227c0,6.339-6.862,10.302-12.353,7.131l-13.965-8.062v-58.94l51.043-29.467l51.043,29.467v58.94l-51.043,29.467l-14.704-8.489   l-9.602,3.872l24.305,14.033l59.198-34.179v-68.351L253.92,298.6l-59.198,34.179v68.352H194.723z" fill="#66a060"/></g></g><g transform="matrix(0.08562621156868717 -0.04971844638622887 0.04971844638622887 0.08562621156868717 -31.648232436458507 74.80761211329067)" id="L1_45"><path d="M512,256c0,82.317-38.86,155.564-99.234,202.397C369.455,492.001,315.068,512,256,512  s-113.455-19.999-156.766-53.603C38.86,411.564,0,338.317,0,256C0,114.615,114.615,0,256,0S512,114.615,512,256z" fill="#f2f2f2"/><path d="M441.992,119.474l-29.226,338.923C369.455,492.001,315.068,512,256,512  s-113.455-19.999-156.766-53.603L70.008,119.474H441.992z" fill="#006bc0"/><path d="M255.997,151.338 255.997,505.296 378.269,470.777 405.545,151.338z" fill="#0096dc"/><path d="M364.036,289.787 275.85,289.787 367.999,242.89 371.981,195.746 140.013,195.746   144.072,243.811 237.189,243.811 147.845,288.484 152.002,337.723 152.002,337.723 311.376,337.723 306.152,396.366 255.997,409.95   203.752,395.321 202.446,358.75 153.778,358.75 159.866,430.848 255.997,458.015 352.127,430.848 364.039,289.779z" fill="#ffffff"/><g><path d="M165.352,67.224 165.352,33.787 213.417,33.787 213.417,15.676 147.937,15.676    147.937,85.335 213.417,85.335 213.417,67.224z" fill="#222123"/><path d="M241.542,42.93 241.542,34.57 289.347,34.57 289.347,33.787 289.347,15.676 223.866,15.676    223.866,58.864 270.799,58.864 270.799,67.224 223.866,67.224 223.866,85.335 289.347,85.335 289.347,67.224 289.347,42.93z" fill="#222123"/><path d="M316.252,42.93 316.252,34.57 364.056,34.57 364.056,33.787 364.056,15.676 298.576,15.676    298.576,58.864 345.509,58.864 345.509,67.224 298.576,67.224 298.576,85.335 364.056,85.335 364.056,67.224 364.056,42.93z" fill="#222123"/></g></g></defs><g fi:class="KUsePattern"><pattern id="pattern_L1_28" width="350" height="350" patternUnits="userSpaceOnUse"><use xlink:href="#L1_28" x="-350" y="-350"/><use xlink:href="#L1_28" x="0" y="-350"/><use xlink:href="#L1_28" x="350" y="-350"/><use xlink:href="#L1_28" x="-350" y="0"/><use xlink:href="#L1_28" x="0" y="0"/><use xlink:href="#L1_28" x="350" y="0"/><use xlink:href="#L1_28" x="-350" y="350"/><use xlink:href="#L1_28" x="0" y="350"/><use xlink:href="#L1_28" x="350" y="350"/></pattern><rect x="0" y="0" width="100%" height="100%" fill="url(#pattern_L1_28)"/></g><g fi:class="KUsePattern"><pattern id="pattern_L1_29" width="350" height="350" patternUnits="userSpaceOnUse"><use xlink:href="#L1_29" x="-350" y="-350"/><use xlink:href="#L1_29" x="0" y="-350"/><use xlink:href="#L1_29" x="350" y="-350"/><use xlink:href="#L1_29" x="-350" y="0"/><use xlink:href="#L1_29" x="0" y="0"/><use xlink:href="#L1_29" x="350" y="0"/><use xlink:href="#L1_29" x="-350" y="350"/><use xlink:href="#L1_29" x="0" y="350"/><use xlink:href="#L1_29" x="350" y="350"/></pattern><rect x="0" y="0" width="100%" height="100%" fill="url(#pattern_L1_29)"/></g><g fi:class="KUsePattern"><pattern id="pattern_L1_30" width="350" height="350" patternUnits="userSpaceOnUse"><use xlink:href="#L1_30" x="-350" y="-350"/><use xlink:href="#L1_30" x="0" y="-350"/><use xlink:href="#L1_30" x="350" y="-350"/><use xlink:href="#L1_30" x="-350" y="0"/><use xlink:href="#L1_30" x="0" y="0"/><use xlink:href="#L1_30" x="350" y="0"/><use xlink:href="#L1_30" x="-350" y="350"/><use xlink:href="#L1_30" x="0" y="350"/><use xlink:href="#L1_30" x="350" y="350"/></pattern><rect x="0" y="0" width="100%" height="100%" fill="url(#pattern_L1_30)"/></g><g fi:class="KUsePattern"><pattern id="pattern_L1_35" width="350" height="350" patternUnits="userSpaceOnUse"><use xlink:href="#L1_35" x="-350" y="-350"/><use xlink:href="#L1_35" x="0" y="-350"/><use xlink:href="#L1_35" x="350" y="-350"/><use xlink:href="#L1_35" x="-350" y="0"/><use xlink:href="#L1_35" x="0" y="0"/><use xlink:href="#L1_35" x="350" y="0"/><use xlink:href="#L1_35" x="-350" y="350"/><use xlink:href="#L1_35" x="0" y="350"/><use xlink:href="#L1_35" x="350" y="350"/></pattern><rect x="0" y="0" width="100%" height="100%" fill="url(#pattern_L1_35)"/></g><g fi:class="KUsePattern"><pattern id="pattern_L1_36" width="350" height="350" patternUnits="userSpaceOnUse"><use xlink:href="#L1_36" x="-350" y="-350"/><use xlink:href="#L1_36" x="0" y="-350"/><use xlink:href="#L1_36" x="350" y="-350"/><use xlink:href="#L1_36" x="-350" y="0"/><use xlink:href="#L1_36" x="0" y="0"/><use xlink:href="#L1_36" x="350" y="0"/><use xlink:href="#L1_36" x="-350" y="350"/><use xlink:href="#L1_36" x="0" y="350"/><use xlink:href="#L1_36" x="350" y="350"/></pattern><rect x="0" y="0" width="100%" height="100%" fill="url(#pattern_L1_36)"/></g><g fi:class="KUsePattern"><pattern id="pattern_L1_37" width="350" height="350" patternUnits="userSpaceOnUse"><use xlink:href="#L1_37" x="-350" y="-350"/><use xlink:href="#L1_37" x="0" y="-350"/><use xlink:href="#L1_37" x="350" y="-350"/><use xlink:href="#L1_37" x="-350" y="0"/><use xlink:href="#L1_37" x="0" y="0"/><use xlink:href="#L1_37" x="350" y="0"/><use xlink:href="#L1_37" x="-350" y="350"/><use xlink:href="#L1_37" x="0" y="350"/><use xlink:href="#L1_37" x="350" y="350"/></pattern><rect x="0" y="0" width="100%" height="100%" fill="url(#pattern_L1_37)"/></g><g fi:class="KUsePattern"><pattern id="pattern_L1_38" width="350" height="350" patternUnits="userSpaceOnUse"><use xlink:href="#L1_38" x="-350" y="-350"/><use xlink:href="#L1_38" x="0" y="-350"/><use xlink:href="#L1_38" x="350" y="-350"/><use xlink:href="#L1_38" x="-350" y="0"/><use xlink:href="#L1_38" x="0" y="0"/><use xlink:href="#L1_38" x="350" y="0"/><use xlink:href="#L1_38" x="-350" y="350"/><use xlink:href="#L1_38" x="0" y="350"/><use xlink:href="#L1_38" x="350" y="350"/></pattern><rect x="0" y="0" width="100%" height="100%" fill="url(#pattern_L1_38)"/></g><g fi:class="KUsePattern"><pattern id="pattern_L1_40" width="350" height="350" patternUnits="userSpaceOnUse"><use xlink:href="#L1_40" x="-350" y="-350"/><use xlink:href="#L1_40" x="0" y="-350"/><use xlink:href="#L1_40" x="350" y="-350"/><use xlink:href="#L1_40" x="-350" y="0"/><use xlink:href="#L1_40" x="0" y="0"/><use xlink:href="#L1_40" x="350" y="0"/><use xlink:href="#L1_40" x="-350" y="350"/><use xlink:href="#L1_40" x="0" y="350"/><use xlink:href="#L1_40" x="350" y="350"/></pattern><rect x="0" y="0" width="100%" height="100%" fill="url(#pattern_L1_40)"/></g><g fi:class="KUsePattern"><pattern id="pattern_L1_41" width="350" height="350" patternUnits="userSpaceOnUse"><use xlink:href="#L1_41" x="-350" y="-350"/><use xlink:href="#L1_41" x="0" y="-350"/><use xlink:href="#L1_41" x="350" y="-350"/><use xlink:href="#L1_41" x="-350" y="0"/><use xlink:href="#L1_41" x="0" y="0"/><use xlink:href="#L1_41" x="350" y="0"/><use xlink:href="#L1_41" x="-350" y="350"/><use xlink:href="#L1_41" x="0" y="350"/><use xlink:href="#L1_41" x="350" y="350"/></pattern><rect x="0" y="0" width="100%" height="100%" fill="url(#pattern_L1_41)"/></g><g fi:class="KUsePattern"><pattern id="pattern_L1_42" width="350" height="350" patternUnits="userSpaceOnUse"><use xlink:href="#L1_42" x="-350" y="-350"/><use xlink:href="#L1_42" x="0" y="-350"/><use xlink:href="#L1_42" x="350" y="-350"/><use xlink:href="#L1_42" x="-350" y="0"/><use xlink:href="#L1_42" x="0" y="0"/><use xlink:href="#L1_42" x="350" y="0"/><use xlink:href="#L1_42" x="-350" y="350"/><use xlink:href="#L1_42" x="0" y="350"/><use xlink:href="#L1_42" x="350" y="350"/></pattern><rect x="0" y="0" width="100%" height="100%" fill="url(#pattern_L1_42)"/></g><g fi:class="KUsePattern"><pattern id="pattern_L1_43" width="350" height="350" patternUnits="userSpaceOnUse"><use xlink:href="#L1_43" x="-350" y="-350"/><use xlink:href="#L1_43" x="0" y="-350"/><use xlink:href="#L1_43" x="350" y="-350"/><use xlink:href="#L1_43" x="-350" y="0"/><use xlink:href="#L1_43" x="0" y="0"/><use xlink:href="#L1_43" x="350" y="0"/><use xlink:href="#L1_43" x="-350" y="350"/><use xlink:href="#L1_43" x="0" y="350"/><use xlink:href="#L1_43" x="350" y="350"/></pattern><rect x="0" y="0" width="100%" height="100%" fill="url(#pattern_L1_43)"/></g><g fi:class="KUsePattern"><pattern id="pattern_L1_44" width="350" height="350" patternUnits="userSpaceOnUse"><use xlink:href="#L1_44" x="-350" y="-350"/><use xlink:href="#L1_44" x="0" y="-350"/><use xlink:href="#L1_44" x="350" y="-350"/><use xlink:href="#L1_44" x="-350" y="0"/><use xlink:href="#L1_44" x="0" y="0"/><use xlink:href="#L1_44" x="350" y="0"/><use xlink:href="#L1_44" x="-350" y="350"/><use xlink:href="#L1_44" x="0" y="350"/><use xlink:href="#L1_44" x="350" y="350"/></pattern><rect x="0" y="0" width="100%" height="100%" fill="url(#pattern_L1_44)"/></g><g fi:class="KUsePattern"><pattern id="pattern_L1_45" width="350" height="350" patternUnits="userSpaceOnUse"><use xlink:href="#L1_45" x="-350" y="-350"/><use xlink:href="#L1_45" x="0" y="-350"/><use xlink:href="#L1_45" x="350" y="-350"/><use xlink:href="#L1_45" x="-350" y="0"/><use xlink:href="#L1_45" x="0" y="0"/><use xlink:href="#L1_45" x="350" y="0"/><use xlink:href="#L1_45" x="-350" y="350"/><use xlink:href="#L1_45" x="0" y="350"/><use xlink:href="#L1_45" x="350" y="350"/></pattern><rect x="0" y="0" width="100%" height="100%" fill="url(#pattern_L1_45)"/></g></svg>